<svg xmlns:xlink="http://www.w3.org/1999/xlink" xmlns="http://www.w3.org/2000/svg" aria-hidden="true" height="20" width="20" class="sc-hRJfrW eNPpdF"><defs><symbol fill="none" viewBox="0 0 20 20" id="vegVeg20" xmlns="http://www.w3.org/2000/svg"><rect x="1" y="1" width="18" height="18" rx="5" fill="#fff"></rect><g clip-path="url(#cva)"><path fill-rule="evenodd" clip-rule="evenodd" d="M10 18.25c-2.406 0-4.035-.004-5.253-.168-1.168-.156-1.692-.431-2.045-.784-.353-.353-.628-.877-.785-2.045-.163-1.218-.167-2.847-.167-5.253s.004-4.035.167-5.253c.157-1.168.432-1.692.785-2.045.353-.353.877-.628 2.045-.785C5.965 1.754 7.594 1.75 10 1.75s4.035.004 5.253.167c1.168.157 1.692.432 2.045.785.353.353.628.877.785 2.045.163 1.218.167 2.847.167 5.253s-.004 4.035-.168 5.253c-.156 1.168-.431 1.692-.784 2.045-.353.353-.877.628-2.045.785-1.218.163-2.847.167-5.253.167ZM0 10c0-4.714 0-7.071 1.464-8.536C2.93 0 5.286 0 10 0c4.714 0 7.071 0 8.535 1.464C20 2.93 20 5.286 20 10c0 4.714 0 7.071-1.465 8.535C17.072 20 14.714 20 10 20s-7.071 0-8.536-1.465C0 17.072 0 14.714 0 10Zm10 5a5 5 0 1 0 0-10 5 5 0 0 0 0 10Z" fill="#0F8A65"></path></g><defs><clipPath id="cva"><path fill="#fff" transform="rotate(180 10 10)" d="M0 0h20v20H0z"></path></clipPath></defs></symbol></defs><g><rect x="1" y="1" width="18" height="18" rx="5" fill="#fff"></rect><g clip-path="url(#cva)"><path fill-rule="evenodd" clip-rule="evenodd" d="M10 18.25c-2.406 0-4.035-.004-5.253-.168-1.168-.156-1.692-.431-2.045-.784-.353-.353-.628-.877-.785-2.045-.163-1.218-.167-2.847-.167-5.253s.004-4.035.167-5.253c.157-1.168.432-1.692.785-2.045.353-.353.877-.628 2.045-.785C5.965 1.754 7.594 1.75 10 1.75s4.035.004 5.253.167c1.168.157 1.692.432 2.045.785.353.353.628.877.785 2.045.163 1.218.167 2.847.167 5.253s-.004 4.035-.168 5.253c-.156 1.168-.431 1.692-.784 2.045-.353.353-.877.628-2.045.785-1.218.163-2.847.167-5.253.167ZM0 10c0-4.714 0-7.071 1.464-8.536C2.93 0 5.286 0 10 0c4.714 0 7.071 0 8.535 1.464C20 2.93 20 5.286 20 10c0 4.714 0 7.071-1.465 8.535C17.072 20 14.714 20 10 20s-7.071 0-8.536-1.465C0 17.072 0 14.714 0 10Zm10 5a5 5 0 1 0 0-10 5 5 0 0 0 0 10Z" fill="#0F8A65"></path></g><defs><clippath id="cva"><path fill="#fff" transform="rotate(180 10 10)" d="M0 0h20v20H0z"></path></clippath></defs></g></svg>